<svg width="60" height="38" viewBox="0 0 60 38" fill="none" xmlns="http://www.w3.org/2000/svg">
<path d="M9.1193 29.3404C0.274453 21.2323 0 0 0 0C0 0 5.53538 3.18201 9.1193 5.15439C14.6412 8.19333 18.8508 8.31789 23.393 12.6877C30.7339 19.75 32.1158 37.2702 32.1158 37.2702C32.1158 37.2702 16.1219 35.7596 9.1193 29.3404Z" fill="#C9D52B"/>
<path d="M40.0457 24.9789C37.0618 28.8919 37.2702 37.2702 37.2702 37.2702C37.2702 37.2702 44.8142 36.2451 48.7685 33.7018C55.5366 29.3486 59.0772 15.8596 59.0772 15.8596C59.0772 15.8596 54.4467 17.7037 51.5439 19.0316C46.9466 21.1346 43.1111 20.9589 40.0457 24.9789Z" fill="#C9D52B"/>
</svg>
